# xmcd CD database file
# Copyright (C) 1996 Ti Kan
#
# Track frame offsets:
#	150
#	20988
#	42615
#	62071
#	84477
#	96970
# Disc length: 1490 seconds
#
# Revision: 1
# Processed by: cddbd v1.4PL0 Copyright (c) Steve Scherf et al.
# Submitted via: CDCOPY 4.900
#
DISCID=5005d006
DTITLE=After the Exile - After the Exile
DYEAR=1900
DGENRE=
TTITLE0=Intro
TTITLE1=All or Nothing
TTITLE2=Genere
TTITLE3=Conversation
TTITLE4=My Buddy and Me
TTITLE5=Genius Unknown
EXTD=
EXTT0=
EXTT1=
EXTT2=
EXTT3=
EXTT4=
EXTT5=
PLAYORDER=
